<mxfile host="app.diagrams.net" modified="2023-09-08T17:22:08.985Z" agent="Mozilla/5.0 (Windows NT 10.0; Win64; x64) AppleWebKit/537.36 (KHTML, like Gecko) Chrome/116.0.0.0 Safari/537.36" version="21.7.2" etag="whKCNyLxZjfvNa6rVdt-" type="github">
  <diagram name="Page-1" id="PDiDJ4xFqTOb3qpOWJmm">
    <mxGraphModel>
      <root>
        <mxCell id="0" />
        <mxCell id="1" parent="0" />
      </root>
    </mxGraphModel>
  </diagram>
</mxfile>
